<svg xmlns="http://www.w3.org/2000/svg" width="24" height="24" viewBox="0 0 24 24">
	<path d="M8 8v2h9V8zM6 22c.58.02 1.42 0 2.3-.2.63-.16 1.3-.43 1.9-.9.54-.4 1-.92 1.4-1.56.34-.6.6-1.3.78-2.06.66-2.74 1.28-5.52 1.7-7.66.14-.75.28-1.53.4-2.32.1-.55.22-1 .36-1.37.15-.38.34-.67.56-.92.25-.25.57-.47.96-.64.55-.23 1.16-.32 1.64-.35V2c-.56-.03-1.42-.04-2.3.16-.65.15-1.33.4-1.96.86-.56.4-1.04.94-1.42 1.6-.37.62-.64 1.33-.8 2.08-.2.8-.37 1.56-.52 2.3-.44 2.14-.94 4.94-1.38 7.72-.1.57-.2 1.03-.37 1.4-.16.4-.36.7-.6.93-.27.28-.6.48-1 .64-.55.2-1.15.27-1.65.3z"/>
</svg>
