<?xml version="1.0" encoding="UTF-8" standalone="no"?>
<!-- Created with Inkscape (http://www.inkscape.org/) -->

<svg
   xmlns:dc="http://purl.org/dc/elements/1.1/"
   xmlns:cc="http://creativecommons.org/ns#"
   xmlns:rdf="http://www.w3.org/1999/02/22-rdf-syntax-ns#"
   xmlns:svg="http://www.w3.org/2000/svg"
   xmlns="http://www.w3.org/2000/svg"
   xmlns:sodipodi="http://sodipodi.sourceforge.net/DTD/sodipodi-0.dtd"
   xmlns:inkscape="http://www.inkscape.org/namespaces/inkscape"
   width="24"
   height="24"
   viewBox="0 0 24 24"
   version="1.1"
   id="svg8"
   inkscape:version="0.92.2 5c3e80d, 2017-08-06"
   sodipodi:docname="icon-node.svg">
  <defs
     id="defs2" />
  <sodipodi:namedview
     id="base"
     pagecolor="#ffffff"
     bordercolor="#c8c8c8"
     borderopacity="1"
     inkscape:pageopacity="0.0"
     inkscape:pageshadow="2"
     inkscape:zoom="21.045032"
     inkscape:cx="10.931846"
     inkscape:cy="12.180414"
     inkscape:document-units="px"
     inkscape:current-layer="g4582"
     showgrid="false"
     units="px"
     inkscape:pagecheckerboard="false"
     borderlayer="true"
     inkscape:window-width="1920"
     inkscape:window-height="1080"
     inkscape:window-x="0"
     inkscape:window-y="0"
     inkscape:window-maximized="1"
     showguides="false"
     inkscape:guide-bbox="true"
     inkscape:snap-bbox="true"
     inkscape:bbox-nodes="true"
     inkscape:showpageshadow="false"
     inkscape:snap-global="true">
    <inkscape:grid
       type="xygrid"
       id="grid815"
       empspacing="4" />
    <sodipodi:guide
       position="2,-4"
       orientation="1,0"
       id="guide4502"
       inkscape:locked="false" />
    <sodipodi:guide
       position="22,-4"
       orientation="1,0"
       id="guide4504"
       inkscape:locked="false" />
    <sodipodi:guide
       position="-2,22"
       orientation="0,1"
       id="guide4506"
       inkscape:locked="false" />
    <sodipodi:guide
       position="-2,2"
       orientation="0,1"
       id="guide4508"
       inkscape:locked="false" />
  </sodipodi:namedview>
  <metadata
     id="metadata5">
    <rdf:RDF>
      <cc:Work
         rdf:about="">
        <dc:format>image/svg+xml</dc:format>
        <dc:type
           rdf:resource="http://purl.org/dc/dcmitype/StillImage" />
        <dc:title />
      </cc:Work>
    </rdf:RDF>
  </metadata>
  <g
     inkscape:label="Layer 1"
     inkscape:groupmode="layer"
     id="layer1"
     transform="translate(0,-414.19999)"
     style="display:none;opacity:0.6">
    <path
       id="path4512"
       style="opacity:1;vector-effect:none;fill-opacity:1;stroke:none;stroke-width:12;stroke-linecap:butt;stroke-linejoin:miter;stroke-miterlimit:4;stroke-dasharray:none;stroke-dashoffset:0;stroke-opacity:1"
       d="M 16,423.69998 A 3.4999998,4.4999919 0 0 1 12.5,428.19997 3.4999998,4.4999919 0 0 1 9.0000002,423.69998 3.4999998,4.4999919 0 0 1 12.5,419.19999 3.4999998,4.4999919 0 0 1 16,423.69998 Z M 5,416.19999 v 20 h 4 v -6.34961 c 1.173273,0.87728 2.569269,1.34925 4,1.34961 3.865993,9.6e-4 7,-3.35786 7,-7.5 0,-4.14214 -3.134008,-7.50263 -7,-7.5 -1.431516,9.8e-4 -2.827577,0.47737 -4,1.35742 v -1.35742 z"
       inkscape:connector-curvature="0" />
  </g>
  <g
     inkscape:groupmode="layer"
     id="layer2"
     inkscape:label="Layer 2"
     style="display:none;opacity:0.6">
    <rect
       style="opacity:1;vector-effect:none;fill-opacity:1;stroke:none;stroke-width:12;stroke-linecap:butt;stroke-linejoin:miter;stroke-miterlimit:4;stroke-dasharray:none;stroke-dashoffset:0;stroke-opacity:1"
       id="rect4553"
       width="12"
       height="16"
       x="4"
       y="4"
       ry="1.6" />
    <circle
       style="opacity:1;vector-effect:none;fill-opacity:1;stroke:none;stroke-width:12;stroke-linecap:butt;stroke-linejoin:miter;stroke-miterlimit:4;stroke-dasharray:none;stroke-dashoffset:0;stroke-opacity:1"
       id="path4555"
       cx="20"
       cy="8"
       r="2" />
    <circle
       r="2"
       cy="16"
       cx="20"
       id="circle4557"
       style="opacity:1;vector-effect:none;fill-opacity:1;stroke:none;stroke-width:12;stroke-linecap:butt;stroke-linejoin:miter;stroke-miterlimit:4;stroke-dasharray:none;stroke-dashoffset:0;stroke-opacity:1" />
  </g>
  <g
     inkscape:groupmode="layer"
     id="layer3"
     inkscape:label="Card?"
     style="display:none;opacity:0.8">
    <path
       id="rect4574"
       style="opacity:1;vector-effect:none;fill:#000000;fill-opacity:1;fill-rule:nonzero;stroke:none;stroke-width:11.99999905;stroke-linecap:butt;stroke-linejoin:miter;stroke-miterlimit:4;stroke-dasharray:none;stroke-dashoffset:0;stroke-opacity:1"
       d="M 7,19 H 17 V 15 H 7 Z M 7,12 H 17 V 8 H 7 Z M 6,2 h 12 c 1.108,0 2,0.892 2,2 v 16 c 0,1.108 -0.892,2 -2,2 H 6 C 4.892,22 4,21.108 4,20 V 4 C 4,2.892 4.892,2 6,2 Z"
       inkscape:connector-curvature="0"
       sodipodi:nodetypes="ccccccccccsssssssss" />
  </g>
  <g
     style="display:inline;opacity:0.8"
     inkscape:label="Node"
     id="g4582"
     inkscape:groupmode="layer">
    <path
       sodipodi:nodetypes="csssccccsssscccc"
       inkscape:connector-curvature="0"
       d="m 20,14 v 6 c 0,1.108 -0.892,2 -2,2 H 6 C 4.892,22 4,21.108 4,20 H 17 V 14 M 4,12 V 4 C 4,2.892 4.892,2 6,2 h 12 c 1.108,0 2,0.892 2,2 V 6 H 7 v 6 z"
       style="opacity:1;vector-effect:none;fill:#000000;fill-opacity:1;fill-rule:nonzero;stroke:none;stroke-width:11.99999905;stroke-linecap:butt;stroke-linejoin:miter;stroke-miterlimit:4;stroke-dasharray:none;stroke-dashoffset:0;stroke-opacity:1"
       id="path4580" />
    <circle
       style="opacity:1;vector-effect:none;fill:#000000;fill-opacity:1;fill-rule:nonzero;stroke:none;stroke-width:12;stroke-linecap:butt;stroke-linejoin:miter;stroke-miterlimit:4;stroke-dasharray:none;stroke-dashoffset:0;stroke-opacity:1"
       id="path4584"
       cx="19"
       cy="10"
       r="2" />
    <circle
       r="2"
       cy="16"
       cx="5"
       id="circle4586"
       style="opacity:1;vector-effect:none;fill:#000000;fill-opacity:1;fill-rule:nonzero;stroke:none;stroke-width:12;stroke-linecap:butt;stroke-linejoin:miter;stroke-miterlimit:4;stroke-dasharray:none;stroke-dashoffset:0;stroke-opacity:1" />
  </g>
  <g
     inkscape:groupmode="layer"
     id="layer4"
     inkscape:label="Property"
     style="display:none;opacity:1">
    <path
       id="path4791"
       style="fill:#000000"
       d="M 18.589844,6.890625 C 18.234235,6.3576692 17.69,6 17,6 12.666667,6 4,6 4,6 2.9,6 2,6.9 2,8 v 8 c 0,1.1 0.9,2 2,2 0,0 8.666667,0 13,0 0.69,0 1.234704,-0.34759 1.589844,-0.880859 L 21.999023,12 Z"
       inkscape:connector-curvature="0"
       sodipodi:nodetypes="sssssssscs" />
    <path
       id="path4879"
       d="m 8.0141388,-21.56372 v 2 h 9.0000002 v -2 z m -2,14.0000005 c 0.58,0.02 1.42,0 2.3,-0.2 0.63,-0.16 1.3000001,-0.43 1.9000002,-0.9 0.54,-0.4 1,-0.9200001 1.4,-1.5600005 0.34,-0.6 0.6,-1.3 0.78,-2.06 0.66,-2.74 1.28,-5.52 1.7,-7.66 0.14,-0.75 0.28,-1.53 0.4,-2.32 0.1,-0.55 0.22,-1 0.36,-1.37 0.15,-0.38 0.34,-0.67 0.56,-0.92 0.25,-0.25 0.57,-0.47 0.96,-0.64 0.55,-0.23 1.16,-0.32 1.64,-0.35 v -2.02 c -0.56,-0.03 -1.42,-0.04 -2.3,0.16 -0.65,0.15 -1.33,0.4 -1.96,0.86 -0.56,0.4 -1.04,0.94 -1.42,1.6 -0.37,0.62 -0.64,1.33 -0.8,2.08 -0.2,0.8 -0.37,1.56 -0.52,2.3 -0.44,2.14 -0.94,4.94 -1.3800001,7.72 -0.1,0.57 -0.2,1.03 -0.3700001,1.4 -0.16,0.4 -0.36,0.7 -0.6,0.93 -0.27,0.28 -0.6,0.48 -1,0.6400004 -0.55,0.2 -1.15,0.27 -1.65,0.3 z"
       inkscape:connector-curvature="0" />
    <path
       inkscape:connector-curvature="0"
       d="m 8.0141388,-49.56372 v 2 h 9.0000002 v -2 z m -2,14.000001 c 0.58,0.02 1.42,0 2.3,-0.2 0.63,-0.16 1.3000001,-0.43 1.9000002,-0.9 0.54,-0.4 1,-0.920001 1.4,-1.560001 0.34,-0.6 0.6,-1.3 0.78,-2.06 0.66,-2.74 1.28,-5.52 1.7,-7.66 0.14,-0.75 0.28,-1.53 0.4,-2.32 0.1,-0.55 0.22,-1 0.36,-1.37 0.15,-0.38 0.34,-0.67 0.56,-0.92 0.25,-0.25 0.57,-0.47 0.96,-0.64 0.55,-0.23 1.16,-0.32 1.64,-0.35 v -2.02 c -0.56,-0.03 -1.42,-0.04 -2.3,0.16 -0.65,0.15 -1.33,0.4 -1.96,0.86 -0.56,0.4 -1.04,0.94 -1.42,1.6 -0.37,0.62 -0.64,1.33 -0.8,2.08 -0.2,0.8 -0.37,1.56 -0.52,2.3 -0.44,2.14 -0.94,4.94 -1.3800001,7.72 -0.1,0.57 -0.2,1.03 -0.3700001,1.4 -0.16,0.4 -0.36,0.7 -0.6,0.93 -0.27,0.28 -0.6,0.48 -1,0.64 -0.55,0.2 -1.15,0.27 -1.65,0.3 z"
       id="path4890" />
    <path
       id="path4892"
       d="m 8.0141388,-77.56372 v 2 h 9.0000002 v -2 z m -2,14.000001 c 0.58,0.02 1.42,0 2.3,-0.2 0.63,-0.16 1.3000001,-0.43 1.9000002,-0.9 0.54,-0.4 1,-0.920001 1.4,-1.560001 0.34,-0.6 0.6,-1.3 0.78,-2.06 0.66,-2.74 1.28,-5.52 1.7,-7.66 0.14,-0.75 0.28,-1.53 0.4,-2.32 0.1,-0.55 0.22,-1 0.36,-1.37 0.15,-0.38 0.34,-0.67 0.56,-0.92 0.25,-0.25 0.57,-0.47 0.96,-0.64 0.55,-0.23 1.16,-0.32 1.64,-0.35 v -2.02 c -0.56,-0.03 -1.42,-0.04 -2.3,0.16 -0.65,0.15 -1.33,0.4 -1.96,0.86 -0.56,0.4 -1.04,0.94 -1.42,1.6 -0.37,0.62 -0.64,1.33 -0.8,2.08 -0.2,0.8 -0.37,1.56 -0.52,2.3 -0.44,2.14 -0.94,4.94 -1.3800001,7.72 -0.1,0.57 -0.2,1.03 -0.3700001,1.4 -0.16,0.4 -0.36,0.7 -0.6,0.93 -0.27,0.28 -0.6,0.48 -1,0.64 -0.55,0.2 -1.15,0.27 -1.65,0.3 z"
       inkscape:connector-curvature="0" />
  </g>
</svg>
